<?xml version="1.0" encoding="utf-8"?>
<!-- Generator: Adobe Illustrator 19.0.0, SVG Export Plug-In . SVG Version: 6.00 Build 0)  -->
<svg version="1.1" id="Capa_1" xmlns="http://www.w3.org/2000/svg" xmlns:xlink="http://www.w3.org/1999/xlink" x="0px" y="0px"
	 viewBox="0 0 202.3 65.6" style="enable-background:new 0 0 202.3 65.6;" xml:space="preserve">
<style type="text/css">
	.st0{fill:#CCCCCC;}
</style>
<polygon id="XMLID_219_" class="st0" points="202.3,3.5 202.3,0 198.6,0 0,0 0,65.6 133.1,65.6 136.8,65.6 136.8,62.1 140.4,62.1 
	140.4,58.7 144,58.7 144,55.2 144,55.2 147.7,55.2 147.7,51.8 147.7,51.8 151.3,51.8 151.3,48.3 151.3,48.3 154.9,48.3 154.9,44.9 
	154.9,44.9 158.6,44.9 158.6,41.4 158.6,41.4 162.2,41.4 162.2,38 162.2,38 165.9,38 165.9,34.5 165.9,34.5 169.5,34.5 169.5,31.1 
	169.5,31.1 173.1,31.1 173.1,27.6 173.1,27.6 176.8,27.6 176.8,24.2 176.8,24.2 180.4,24.2 180.4,20.7 180.4,20.7 184.1,20.7 
	184.1,17.3 184.1,17.3 187.7,17.3 187.7,13.8 187.7,13.8 187.7,13.8 191.4,13.8 191.4,10.4 195,10.4 195,6.9 198.6,6.9 198.6,3.5 
	198.6,3.5 "/>
<g id="XMLID_27_">
</g>
<g id="XMLID_28_">
</g>
<g id="XMLID_29_">
</g>
<g id="XMLID_30_">
</g>
<g id="XMLID_31_">
</g>
<g id="XMLID_32_">
</g>
</svg>
