<?xml version="1.0" encoding="utf-8"?>
<!-- Generator: Adobe Illustrator 14.0.0, SVG Export Plug-In . SVG Version: 6.00 Build 43363)  -->
<!DOCTYPE svg PUBLIC "-//W3C//DTD SVG 1.1//EN" "http://www.w3.org/Graphics/SVG/1.1/DTD/svg11.dtd">
<svg version="1.1" id="Capa_1" xmlns="http://www.w3.org/2000/svg" xmlns:xlink="http://www.w3.org/1999/xlink" x="0px" y="0px"
	 width="117.113px" height="35px" viewBox="0 0 117.113 35" enable-background="new 0 0 117.113 35" xml:space="preserve">
<g>
	<defs>
		<rect id="SVGID_1_" y="0.207" width="117.113" height="38.262"/>
	</defs>
	<clipPath id="SVGID_2_">
		<use xlink:href="#SVGID_1_"  overflow="visible"/>
	</clipPath>
	<path clip-path="url(#SVGID_2_)" fill-rule="evenodd" clip-rule="evenodd" fill="#139AD2" d="M115.612,0.207
		c0.226,0,0.452,0.068,0.679,0.181c0.203,0.113,0.383,0.293,0.498,0.498c0.135,0.226,0.18,0.452,0.18,0.701
		c0,0.226-0.045,0.452-0.18,0.678c-0.115,0.226-0.295,0.385-0.498,0.52c-0.227,0.113-0.453,0.181-0.679,0.181
		c-0.25,0-0.476-0.068-0.702-0.181c-0.202-0.135-0.384-0.294-0.496-0.52c-0.137-0.226-0.182-0.452-0.182-0.678
		c0-0.249,0.045-0.475,0.182-0.701c0.112-0.205,0.294-0.385,0.52-0.498C115.137,0.274,115.362,0.207,115.612,0.207 M115.612,0.478
		c-0.204,0-0.386,0.045-0.565,0.136c-0.158,0.09-0.293,0.227-0.407,0.407c-0.091,0.181-0.136,0.362-0.136,0.566
		c0,0.181,0.045,0.361,0.136,0.542c0.114,0.181,0.249,0.316,0.407,0.408c0.18,0.113,0.361,0.158,0.565,0.158
		c0.181,0,0.361-0.045,0.542-0.158c0.183-0.091,0.318-0.227,0.408-0.408s0.135-0.361,0.135-0.542c0-0.204-0.045-0.385-0.135-0.566
		c-0.113-0.18-0.249-0.317-0.408-0.407C115.974,0.523,115.793,0.478,115.612,0.478 M114.98,2.31V0.863h0.292h0.476
		c0.09,0,0.158,0.022,0.226,0.068c0.045,0.023,0.091,0.068,0.136,0.135c0.023,0.068,0.045,0.136,0.045,0.204
		c0,0.113-0.021,0.203-0.09,0.271c-0.067,0.067-0.182,0.113-0.293,0.136c0.045,0.023,0.066,0.046,0.09,0.068
		c0.021,0,0.066,0.045,0.112,0.091c0,0.022,0.045,0.09,0.114,0.181l0.156,0.294h-0.361l-0.111-0.226
		c-0.09-0.158-0.159-0.271-0.204-0.294c-0.067-0.045-0.136-0.067-0.205-0.067h-0.09V2.31H114.98z M115.272,1.496h0.114
		c0.181,0,0.295-0.023,0.34-0.023c0.021-0.022,0.066-0.045,0.09-0.068c0.021-0.045,0.021-0.067,0.021-0.113s0-0.09-0.021-0.113
		c-0.023-0.022-0.068-0.045-0.113-0.067c-0.021-0.022-0.136-0.022-0.316-0.022h-0.114V1.496z"/>
	<path clip-path="url(#SVGID_2_)" fill="#139AD2" d="M26.499,1.723h6.468c0.747,0,1.379,0.248,1.923,0.791
		c0.521,0.52,0.792,1.153,0.792,1.9s-0.271,1.402-0.792,1.922c-0.544,0.521-1.176,0.792-1.923,0.792h-4.795v3.755h-1.673V1.723z
		 M46.153,4.164L46.153,4.164v0.023V4.164z M88.856,2.31L88.856,2.31V2.287V2.31h0.022H88.856h0.022H88.856h-0.024H88.856z
		 M88.856,2.31h0.022H88.856h-0.024H88.856z M54.522,1.723h-1.921h-1.945c-0.746,0-1.402,0.271-1.968,0.836
		c-0.542,0.543-0.815,1.221-0.815,2.013v2.873c0,0.61-0.09,1.402,0.544,2.329c0.271,0.363,0.451,0.566,0.972,0.837
		c0.475,0.249,1.448,0.272,1.81,0.272h1.403h1.921c0.77,0,1.448-0.294,1.901-0.815c0.293-0.316,0.609-0.927,0.609-1.515
		c0-0.565-0.181-1.47-0.564-1.878c-0.52-0.587-1.176-0.7-1.946-0.7h-1.921h-1.222v1.764h1.222h1.921
		c0.294,0,0.566,0.022,0.746,0.271c0.136,0.136,0.114,0.724,0,0.86c-0.203,0.225-0.452,0.248-0.746,0.248h-1.921h-1.945
		c-0.294,0-0.543-0.113-0.746-0.316c-0.205-0.226-0.316-0.498-0.316-0.792V7.535V4.572c0-0.294,0.111-0.543,0.316-0.769
		c0.203-0.203,0.452-0.317,0.746-0.317h1.945h1.921V1.723z M46.402,1.723v0.814c0,1.108-0.361,2.103-1.086,2.939
		c-0.723,0.86-1.605,1.38-2.667,1.561v3.845h-1.674V7.037c-1.063-0.181-1.968-0.701-2.67-1.561
		c-0.723-0.836-1.084-1.831-1.084-2.939V1.723h1.674v0.814c0,0.791,0.271,1.492,0.858,2.058c0.566,0.566,1.244,0.859,2.059,0.859
		c0.791,0,1.469-0.293,2.059-0.859c0.564-0.565,0.858-1.267,0.858-2.058V1.723H46.402z M113.938,4.414v6.469h-1.65V4.414
		c0-0.271-0.113-0.521-0.316-0.724c-0.203-0.204-0.453-0.316-0.725-0.316h-2.916h-0.86c-0.271,0-0.521,0.112-0.724,0.316
		c-0.204,0.203-0.316,0.453-0.316,0.724v6.469h-1.652V4.414V1.723h1.652v0.203c0.361-0.136,0.701-0.203,1.04-0.203h3.167h0.609
		c0.725,0,1.357,0.271,1.9,0.791S113.938,3.689,113.938,4.414 M98.672,1.723c1.244,0,2.328,0.429,3.234,1.333
		c0.882,0.905,1.334,1.99,1.334,3.234c0,1.267-0.452,2.353-1.334,3.235c-0.906,0.905-1.99,1.357-3.234,1.357
		c-1.267,0-2.353-0.453-3.257-1.357C94.534,8.643,94.08,7.557,94.08,6.29c0-1.244,0.454-2.329,1.335-3.234
		C96.319,2.152,97.406,1.723,98.672,1.723 M96.59,4.233L96.59,4.233c-0.565,0.565-0.859,1.266-0.859,2.057
		c0,0.815,0.293,1.494,0.859,2.058c0.589,0.588,1.267,0.861,2.082,0.861c0.792,0,1.491-0.272,2.057-0.861
		c0.565-0.564,0.86-1.243,0.86-2.058c0-0.791-0.295-1.492-0.86-2.057c-0.566-0.566-1.266-0.859-2.057-0.859
		C97.857,3.374,97.18,3.667,96.59,4.233 M90.732,1.723h1.833v1.651h-1.833V1.723z M92.564,5.046L92.564,5.046v5.836h-1.832V5.046
		H92.564z M81.709,1.723v6.445c0,0.294,0.09,0.543,0.292,0.747c0.205,0.203,0.452,0.295,0.747,0.295h1.878h1.875
		c0.273,0,0.521-0.092,0.726-0.295c0.203-0.203,0.316-0.452,0.316-0.747h1.65c0,0.747-0.248,1.403-0.792,1.923
		c-0.519,0.52-1.153,0.792-1.9,0.792h-1.875h-1.878c-0.747,0-1.379-0.272-1.923-0.792c-0.52-0.521-0.791-1.177-0.791-1.923V4.956
		V1.723H81.709z M78.52,7.648v3.234h-1.674v-0.204c-0.316,0.135-0.678,0.204-1.04,0.204h-1.878H72.05
		c-0.746,0-1.379-0.272-1.921-0.792c-0.52-0.543-0.791-1.177-0.791-1.923c0-0.746,0.271-1.379,0.791-1.899
		c0.542-0.543,1.175-0.792,1.921-0.792h1.878h1.878c0.271,0,0.52-0.113,0.723-0.316c0.204-0.204,0.316-0.453,0.316-0.747
		c0-0.271-0.112-0.521-0.316-0.724c-0.204-0.204-0.452-0.316-0.723-0.316h-1.878H72.05c-0.292,0-0.542,0.112-0.746,0.316
		c-0.203,0.203-0.293,0.453-0.293,0.724h-1.673c0-0.724,0.271-1.38,0.791-1.9c0.542-0.543,1.175-0.791,1.921-0.791h1.878h1.878
		c0.745,0,1.379,0.271,1.9,0.791c0.542,0.52,0.813,1.176,0.813,1.9V7.648z M75.806,7.127L75.806,7.127h-1.878H72.05
		c-0.292,0-0.542,0.113-0.746,0.317c-0.203,0.204-0.293,0.452-0.293,0.723c0,0.294,0.09,0.543,0.293,0.747
		c0.204,0.203,0.454,0.295,0.746,0.295h1.878h1.878c0.271,0,0.52-0.092,0.723-0.295c0.204-0.203,0.316-0.452,0.316-0.747V6.924
		C76.529,7.06,76.167,7.127,75.806,7.127 M61.33,1.723c0.724,0,1.334,0.248,1.878,0.746c0.519-0.498,1.153-0.746,1.876-0.746
		c0.724,0,1.379,0.248,1.899,0.791c0.544,0.52,0.792,1.153,0.792,1.9v6.469h-1.65V4.414c0-0.271-0.113-0.521-0.316-0.724
		c-0.204-0.204-0.453-0.316-0.724-0.316c-0.293,0-0.542,0.112-0.747,0.316c-0.203,0.203-0.316,0.453-0.316,0.724v3.143h-1.65V4.414
		c0-0.271-0.114-0.521-0.317-0.724c-0.203-0.204-0.452-0.316-0.724-0.316c-0.294,0-0.542,0.112-0.746,0.316
		c-0.205,0.203-0.295,0.453-0.295,0.724v6.469h-1.674V4.414c0-0.747,0.273-1.38,0.792-1.9C59.928,1.971,60.584,1.723,61.33,1.723
		 M28.172,3.374L28.172,3.374v2.08h4.795c0.295,0,0.521-0.09,0.747-0.293c0.204-0.204,0.294-0.453,0.294-0.747
		c0-0.271-0.09-0.521-0.294-0.724c-0.226-0.226-0.452-0.316-0.747-0.316H28.172z"/>
</g>
<g>
	<path fill="#B7054D" d="M47.563,17.434v6.472h-1.618v1.618h-1.618v1.618h-6.472v4.854h-1.618v1.618h-6.473v-1.618h-1.618V15.816
		h1.618v3.237h1.618v-1.619H33v-1.618h-3.236v-1.618h14.563v1.618h1.618v1.618H47.563z M37.854,23.906h3.236v-4.854h-3.236V23.906z"
		/>
</g>
<path fill="#C88C0A" d="M66.993,28.761h1.618v3.236h-1.618v1.618H52.43v-1.618h-1.618V15.816h1.618v3.237h1.618v-1.619h1.618v-1.618
	H52.43v-1.618h6.473v1.618h1.618v11.327h6.472V28.761z"/>
<g>
	<path fill="#508028" d="M89.654,17.434h1.618v14.563h-1.618v1.618h-1.618v-1.618h-1.618v-6.473h-4.854v6.473h-1.618v1.618h-6.473
		v-1.618h-1.618V17.434h1.618v1.619h1.618v-1.619h1.618v-1.618h-1.618v-1.618h12.945v1.618h1.618V17.434z M86.418,19.053h-4.854
		v1.617h4.854V19.053z"/>
</g>
<g>
	<defs>
		<rect id="SVGID_3_" y="0.207" width="117.113" height="38.262"/>
	</defs>
	<clipPath id="SVGID_4_">
		<use xlink:href="#SVGID_3_"  overflow="visible"/>
	</clipPath>
	<g clip-path="url(#SVGID_4_)">
		<path fill="#D52D1B" d="M96.104,19.053h-1.618v-3.237h1.618V19.053z M112.285,15.816h1.618v3.237h-1.618v1.617h-1.618v1.618
			h-1.618v9.709h-1.618v1.618h-4.854v-1.618h-1.618v-8.091h-1.618v-1.618h-1.618V20.67h-1.618v-1.617h1.618v-1.619h1.618v-1.618
			h-3.236v-1.618h4.854v1.618h1.618v1.618h3.236v-1.618h1.617v-1.618h4.854V15.816z"/>
	</g>
	<path clip-path="url(#SVGID_4_)" fill="#E31E6A" d="M45.932,19.058v6.472h-1.618v1.618h-1.618v1.618h-6.472v4.854h-1.618v1.618
		h-6.473V33.62h-1.618V17.439h1.618v3.236h1.618v-1.617h1.618v-1.619h-3.236v-1.618h14.563v1.618h1.618v1.619H45.932z
		 M36.224,25.529h3.236v-4.854h-3.236V25.529z"/>
	<path clip-path="url(#SVGID_4_)" fill="#F7B11E" d="M65.362,30.384h1.618v3.236h-1.618v1.618H50.799V33.62h-1.618V17.439h1.618
		v3.236h1.618v-1.617h1.618v-1.619h-3.236v-1.618h6.473v1.618h1.618v11.327h6.472V30.384z"/>
	<g clip-path="url(#SVGID_4_)">
		<path fill="#8FBD47" d="M88.024,19.058h1.618V33.62h-1.618v1.618h-1.618V33.62h-1.618v-6.473h-4.854v6.473h-1.618v1.618h-6.473
			V33.62h-1.618V19.058h1.618v1.617h1.618v-1.617h1.618v-1.619h-1.618v-1.618h12.945v1.618h1.618V19.058z M84.788,20.675h-4.854
			v1.618h4.854V20.675z"/>
	</g>
	<g clip-path="url(#SVGID_4_)">
		<path fill="#E54527" d="M94.481,20.675h-1.618v-3.236h1.618V20.675z M110.662,17.439h1.618v3.236h-1.618v1.618h-1.618v1.618
			h-1.618v9.709h-1.618v1.618h-4.854V33.62h-1.618v-8.091h-1.618v-1.618H96.1v-1.618h-1.618v-1.618H96.1v-1.617h1.618v-1.619h-3.236
			v-1.618h4.854v1.618h1.618v1.619h3.236v-1.619h1.617v-1.618h4.854V17.439z"/>
	</g>
</g>
<polygon fill="#2886C3" points="4.952,16.438 4.952,15.77 5.659,15.77 5.659,19.123 4.952,19.123 4.952,18.415 4.244,18.415 
	4.244,17.427 4.244,16.438 "/>
<polygon fill="#2886C3" points="20.57,16.438 20.57,15.77 19.863,15.77 19.863,19.123 20.57,19.123 20.57,18.415 21.278,18.415 
	21.278,17.427 21.278,16.438 "/>
<polygon fill="#2886C3" points="7.953,31.283 6.538,31.283 6.538,34.637 7.245,34.637 7.245,33.967 7.953,33.967 "/>
<polygon fill="#2886C3" points="7.429,33.26 7.429,34.674 10.782,34.674 10.782,33.967 10.111,33.967 10.111,33.26 "/>
<rect x="19.863" y="15.099" fill="#222323" width="0.708" height="0.671"/>
<rect x="21.985" y="17.8" fill="#8A8A88" width="6.462" height="0.671"/>
<rect x="2.806" y="21.805" fill="#8A8A88" width="1.438" height="0.672"/>
<polygon fill="#8A8A88" points="2.83,23.625 2.83,23.146 4.952,23.146 4.952,25.158 2.881,25.158 2.881,25.252 2.122,25.252 
	2.122,23.625 "/>
<rect x="2.11" y="21.135" fill="#8A8A88" width="1.438" height="0.67"/>
<rect x="1.392" y="20.463" fill="#8A8A88" width="1.438" height="0.672"/>
<rect x="2.806" y="17.111" fill="#8A8A88" width="1.438" height="0.671"/>
<rect x="2.11" y="17.782" fill="#8A8A88" width="1.438" height="0.67"/>
<rect x="1.392" y="18.452" fill="#8A8A88" width="1.438" height="0.671"/>
<rect x="0.696" y="19.123" fill="#8A8A88" width="1.438" height="1.34"/>
<rect x="15.71" y="26.59" fill="#8A8A88" width="1.46" height="5.365"/>
<rect x="7.93" y="26.59" fill="#8A8A88" width="1.46" height="5.365"/>
<rect x="8.66" y="31.164" fill="#8A8A88" width="7.78" height="1.461"/>
<polygon fill="#8A8A88" points="29.143,15.88 29.143,14.465 30.581,14.465 30.581,18.416 29.143,18.416 29.143,17.221 
	28.447,17.221 28.447,15.88 "/>
<polygon fill="#8A8A88" points="4.36,2.979 4.36,2.308 21.166,2.308 21.166,2.979 21.873,2.979 21.873,13.093 21.166,13.093 
	21.108,13.093 4.456,13.093 4.36,13.093 3.691,13.093 3.691,2.979 "/>
<polygon fill="#FFFFFF" points="5.699,5.695 6.364,5.695 6.364,5.023 7.035,5.023 7.035,4.316 18.488,4.316 18.488,5.023 
	19.16,5.023 19.16,5.695 19.824,5.695 19.824,8.37 19.16,8.37 19.16,9.039 18.488,9.039 18.488,9.708 7.035,9.708 7.035,9.039 
	6.364,9.039 6.364,8.37 5.699,8.37 "/>
<polygon fill="#222323" points="13.764,6.354 14.433,6.354 14.433,5.694 15.144,5.694 15.144,5.009 16.479,5.009 16.479,5.694 
	17.156,5.694 17.156,6.354 17.825,6.354 17.825,7.701 17.156,7.701 17.156,8.373 16.479,8.373 16.479,9.039 15.144,9.039 
	15.144,8.373 14.433,8.373 14.433,7.701 13.764,7.701 "/>
<polygon fill="#222323" points="7.704,6.354 8.373,6.354 8.373,5.694 9.083,5.694 9.083,5.009 10.419,5.009 10.419,5.694 
	11.095,5.694 11.095,6.354 11.764,6.354 11.764,7.701 11.095,7.701 11.095,8.373 10.419,8.373 10.419,9.039 9.083,9.039 
	9.083,8.373 8.373,8.373 8.373,7.701 7.704,7.701 "/>
<rect x="7.035" y="3.647" fill="#222323" width="11.453" height="0.669"/>
<rect x="7.035" y="9.708" fill="#222323" width="11.453" height="0.669"/>
<rect x="18.487" y="4.316" fill="#222323" width="0.672" height="0.707"/>
<rect x="19.16" y="5.023" fill="#222323" width="0.665" height="0.672"/>
<rect x="6.364" y="4.316" fill="#222323" width="0.672" height="0.707"/>
<rect x="5.7" y="5.023" fill="#222323" width="0.665" height="0.672"/>
<rect x="6.364" y="9.039" fill="#222323" width="0.671" height="0.669"/>
<rect x="5.7" y="8.37" fill="#222323" width="0.665" height="0.669"/>
<rect x="18.489" y="9.039" fill="#222323" width="0.671" height="0.669"/>
<rect x="19.16" y="8.37" fill="#222323" width="0.665" height="0.669"/>
<rect x="19.824" y="5.696" fill="#222323" width="0.665" height="2.674"/>
<rect x="5.035" y="5.696" fill="#222323" width="0.665" height="2.674"/>
<rect x="21.165" y="2.308" fill="#222323" width="0.708" height="0.671"/>
<rect x="21.873" y="2.979" fill="#222323" width="0.707" height="10.115"/>
<rect x="6.366" y="14.392" fill="#222323" width="12.79" height="0.708"/>
<rect x="6.366" y="15.099" fill="#8A8A88" width="12.79" height="10.784"/>
<rect x="5.659" y="15.099" fill="#222323" width="0.708" height="10.784"/>
<rect x="3.691" y="13.093" fill="#222323" width="18.181" height="0.708"/>
<rect x="2.984" y="2.979" fill="#222323" width="0.708" height="10.115"/>
<rect x="3.691" y="2.308" fill="#222323" width="0.668" height="0.671"/>
<rect x="4.36" y="1.682" fill="#222323" width="16.805" height="0.626"/>
<rect x="10.419" y="11.551" fill="#212221" width="4.726" height="0.669"/>
<rect x="15.145" y="10.882" fill="#212221" width="0.671" height="0.669"/>
<rect x="9.748" y="10.882" fill="#212221" width="0.671" height="0.669"/>
<rect x="19.156" y="15.099" fill="#222323" width="0.707" height="10.784"/>
<rect x="20.57" y="15.77" fill="#222323" width="0.708" height="0.671"/>
<rect x="19.863" y="19.123" fill="#222323" width="0.708" height="0.67"/>
<rect x="4.952" y="15.099" fill="#222323" width="0.708" height="0.671"/>
<rect x="9.083" y="16.439" fill="#FFFFFF" width="7.397" height="2.682"/>
<polygon fill="#222323" points="9.637,15.768 9.79,15.768 16.48,15.768 16.48,16.439 9.79,16.439 9.637,16.439 9.083,16.439 
	9.083,15.768 "/>
<rect x="8.375" y="16.439" fill="#222323" width="0.708" height="0.67"/>
<rect x="9.04" y="17.109" fill="#222323" width="0.707" height="0.67"/>
<rect x="9.04" y="17.78" fill="#222323" width="0.707" height="0.671"/>
<rect x="8.375" y="17.109" fill="#222323" width="0.708" height="0.67"/>
<rect x="8.375" y="17.78" fill="#222323" width="0.708" height="0.671"/>
<rect x="8.375" y="18.45" fill="#222323" width="0.708" height="0.671"/>
<rect x="16.481" y="16.439" fill="#222323" width="0.707" height="0.67"/>
<rect x="15.104" y="16.439" fill="#222323" width="0.708" height="0.67"/>
<rect x="15.104" y="18.45" fill="#222323" width="0.708" height="0.671"/>
<rect x="14.397" y="18.45" fill="#222323" width="0.707" height="0.671"/>
<rect x="10.419" y="18.45" fill="#222323" width="0.708" height="0.671"/>
<rect x="9.711" y="18.45" fill="#222323" width="0.708" height="0.671"/>
<polygon fill="#2886C3" points="15.169,17.109 15.169,17.109 15.812,17.109 15.812,17.78 15.812,18.45 15.104,18.45 14.397,18.45 
	14.397,17.78 14.397,17.109 "/>
<polygon fill="#2886C3" points="10.483,17.109 10.483,17.109 11.126,17.109 11.126,17.78 11.126,18.45 10.419,18.45 9.711,18.45 
	9.711,17.78 9.711,17.109 "/>
<rect x="15.812" y="17.78" fill="#222323" width="0.708" height="0.671"/>
<rect x="15.812" y="17.109" fill="#222323" width="0.708" height="0.67"/>
<polygon fill="#222323" points="13.69,17.109 13.832,17.109 14.397,17.109 14.397,17.78 14.397,18.45 13.832,18.45 13.69,18.45 
	13.125,18.45 13.125,17.78 13.125,17.109 "/>
<polygon fill="#222323" points="11.7,17.109 11.844,17.109 12.417,17.109 12.417,17.78 12.417,18.45 11.844,18.45 11.7,18.45 
	11.126,18.45 11.126,17.78 11.126,17.109 "/>
<polygon fill="#67AE3A" points="13.125,17.109 13.125,17.682 13.125,17.78 13.125,18.45 12.417,18.45 12.417,17.78 12.417,17.682 
	12.417,17.109 "/>
<rect x="14.397" y="16.439" fill="#222323" width="0.707" height="0.67"/>
<rect x="10.419" y="16.439" fill="#222323" width="0.708" height="0.67"/>
<rect x="9.711" y="16.439" fill="#222323" width="0.708" height="0.67"/>
<rect x="12.417" y="16.439" fill="#222323" width="0.708" height="0.67"/>
<rect x="12.417" y="18.45" fill="#222323" width="0.708" height="0.671"/>
<rect x="16.481" y="17.109" fill="#222323" width="0.707" height="0.67"/>
<rect x="16.481" y="17.78" fill="#222323" width="0.707" height="0.671"/>
<rect x="16.481" y="18.45" fill="#222323" width="0.707" height="0.671"/>
<polygon fill="#222323" points="15.773,19.121 15.917,19.121 16.481,19.121 16.481,19.791 15.917,19.791 15.773,19.791 
	9.083,19.791 9.083,19.121 "/>
<rect x="4.244" y="15.77" fill="#222323" width="0.708" height="0.671"/>
<rect x="2.83" y="16.44" fill="#222323" width="0.708" height="0.67"/>
<rect x="2.122" y="17.111" fill="#222323" width="0.708" height="0.671"/>
<rect x="1.415" y="17.782" fill="#222323" width="0.708" height="0.67"/>
<rect x="0.708" y="18.452" fill="#222323" width="0.708" height="0.671"/>
<rect x="2.83" y="18.452" fill="#222323" width="0.708" height="0.671"/>
<rect x="2.122" y="19.123" fill="#222323" width="0.708" height="0.67"/>
<rect x="2.122" y="19.793" fill="#222323" width="0.708" height="0.672"/>
<rect x="0.708" y="20.463" fill="#222323" width="0.708" height="0.672"/>
<rect x="1.415" y="21.135" fill="#222323" width="0.708" height="0.67"/>
<rect x="2.122" y="21.805" fill="#222323" width="0.708" height="0.672"/>
<rect x="2.83" y="20.463" fill="#222323" width="0.708" height="0.672"/>
<rect x="3.537" y="21.135" fill="#222323" width="0.707" height="0.67"/>
<rect x="4.244" y="21.805" fill="#222323" width="0.708" height="0.672"/>
<rect x="15.026" y="26.508" fill="#222323" width="0.708" height="4.523"/>
<rect x="15.026" y="30.613" fill="#222323" width="0.708" height="0.67"/>
<rect x="5.831" y="30.613" fill="#222323" width="9.195" height="0.67"/>
<polygon fill="#222323" points="6.366,25.883 19.155,25.883 19.155,26.59 17.855,26.59 17.855,32.625 17.148,32.625 17.148,26.59 
	6.366,26.59 "/>
<rect x="16.441" y="31.955" fill="#222323" width="0.708" height="0.67"/>
<rect x="16.441" y="32.625" fill="#222323" width="0.708" height="0.67"/>
<rect x="7.953" y="31.105" fill="#222323" width="0.708" height="2.861"/>
<rect x="10.075" y="33.295" fill="#222323" width="0.708" height="0.672"/>
<rect x="10.782" y="33.967" fill="#222323" width="0.708" height="0.67"/>
<rect x="7.098" y="34.637" fill="#222323" width="4.392" height="0.672"/>
<rect x="7.245" y="33.967" fill="#222323" width="0.708" height="0.67"/>
<rect x="7.245" y="26.59" fill="#222323" width="0.708" height="4.023"/>
<rect x="9.367" y="26.59" fill="#222323" width="0.708" height="4.023"/>
<polygon fill="#222323" points="6.538,31.248 6.538,34.637 7.246,34.637 7.246,35.307 5.831,35.307 5.831,31.248 "/>
<rect x="7.953" y="32.625" fill="#222323" width="8.488" height="0.67"/>
<rect x="4.244" y="22.477" fill="#222323" width="0.708" height="0.67"/>
<rect x="3.537" y="22.477" fill="#222323" width="0.707" height="0.67"/>
<rect x="2.83" y="22.477" fill="#222323" width="0.708" height="0.67"/>
<polygon fill="#222323" points="2.83,23.146 2.83,23.816 2.122,23.816 2.122,25.158 4.952,25.158 4.952,23.146 5.659,23.146 
	5.659,25.158 5.659,25.381 5.659,25.828 5.175,25.828 4.952,25.828 1.415,25.828 1.415,23.146 "/>
<rect y="19.123" fill="#222323" width="0.708" height="0.67"/>
<rect y="19.793" fill="#222323" width="0.708" height="0.672"/>
<polygon fill="#222323" points="4.244,18.415 4.244,16.44 3.537,16.44 3.537,19.123 4.244,19.123 4.952,19.123 4.952,18.415 "/>
<rect x="4.952" y="19.123" fill="#222323" width="0.708" height="0.67"/>
<path fill="#222323" d="M20.57,18.415v0.708h10.707v-4.658h-0.708v3.951h-1.415v-1.269h-0.708V15.88H27.74v1.268h-5.755V16.44
	h-0.708v1.975H20.57z M21.985,17.855h6.462v0.56h-6.462V17.855z"/>
<polygon fill="#222323" points="29.155,14.465 29.155,15.88 28.447,15.88 28.447,15.526 28.447,14.465 "/>
<polygon fill="#222323" points="30.569,14.465 29.155,14.465 29.155,13.758 29.508,13.758 30.569,13.758 "/>
<rect x="15.107" y="21.135" fill="#D9D8D7" width="0.707" height="0.67"/>
<rect x="13.692" y="21.135" fill="#FFFFFF" width="0.708" height="0.67"/>
<rect x="12.277" y="21.135" fill="#D9D8D7" width="0.707" height="0.67"/>
<rect x="10.862" y="21.135" fill="#D9D8D7" width="0.708" height="0.67"/>
<rect x="9.448" y="21.135" fill="#AFB0AF" width="0.708" height="0.67"/>
<rect x="15.107" y="22.477" fill="#AFB0AF" width="0.707" height="0.67"/>
<rect x="13.692" y="22.477" fill="#D9D8D7" width="0.708" height="0.67"/>
<rect x="12.277" y="22.477" fill="#AFB0AF" width="0.707" height="0.67"/>
<rect x="10.862" y="22.477" fill="#D9D8D7" width="0.708" height="0.67"/>
<rect x="9.448" y="22.477" fill="#D9D8D7" width="0.708" height="0.67"/>
</svg>
