<?xml version="1.0" encoding="utf-8"?>
<!-- Generator: Adobe Illustrator 14.0.0, SVG Export Plug-In . SVG Version: 6.00 Build 43363)  -->
<!DOCTYPE svg PUBLIC "-//W3C//DTD SVG 1.1//EN" "http://www.w3.org/Graphics/SVG/1.1/DTD/svg11.dtd">
<svg version="1.1" id="Capa_1" xmlns="http://www.w3.org/2000/svg" xmlns:xlink="http://www.w3.org/1999/xlink" x="0px" y="0px"
	 width="200.23px" height="18.6px" viewBox="0 0 200.23 18.6" enable-background="new 0 0 200.23 18.6" xml:space="preserve">
<g>
	<g>
		<g>
			<path fill="none" d="M177.458,0.698c-0.35-0.115-0.639-0.232-0.988-0.232c-0.288,0-0.64,0.117-0.93,0.232
				c-0.291,0.175-0.522,0.406-0.697,0.755c-0.175,0.292-0.291,0.64-0.291,0.93c0,0.35,0.116,0.698,0.291,0.988
				c0.175,0.292,0.406,0.522,0.697,0.697c0.29,0.176,0.642,0.233,0.93,0.233c0.351,0,0.697-0.058,0.988-0.233
				c0.29-0.174,0.523-0.405,0.697-0.697c0.176-0.291,0.233-0.64,0.233-0.988c0-0.291-0.059-0.639-0.233-0.93
				C177.981,1.103,177.748,0.871,177.458,0.698z M176.993,3.662l-0.232-0.408c-0.116-0.29-0.231-0.464-0.349-0.522
				c-0.117-0.058-0.231-0.115-0.35-0.115h-0.116v1.046h-0.522h-0.001h0.001V1.161h0.466c0.523,0,0.756,0,0.814,0
				c0.175,0,0.348,0.058,0.405,0.115c0.117,0,0.175,0.117,0.231,0.234c0.06,0.117,0.117,0.233,0.117,0.349
				c0,0.175-0.058,0.349-0.174,0.465c-0.117,0.115-0.291,0.231-0.523,0.231c0.117,0.06,0.175,0.06,0.175,0.117
				c0.059,0,0.116,0.116,0.174,0.174c0.058,0.06,0.117,0.117,0.231,0.349l0.291,0.467H176.993z"/>
			<path fill="#ECECEC" d="M178.564,1.22c-0.232-0.406-0.525-0.697-0.873-0.93c-0.407-0.174-0.813-0.291-1.222-0.291
				c-0.406,0-0.814,0.117-1.161,0.291c-0.407,0.232-0.697,0.523-0.871,0.93c-0.233,0.35-0.35,0.756-0.35,1.163
				c0,0.408,0.117,0.814,0.35,1.221c0.174,0.351,0.464,0.642,0.871,0.873c0.348,0.232,0.755,0.351,1.161,0.351
				c0.408,0,0.815-0.118,1.222-0.351c0.348-0.232,0.641-0.522,0.873-0.873c0.231-0.406,0.291-0.813,0.291-1.221
				C178.855,1.976,178.796,1.569,178.564,1.22z M178.155,3.37c-0.174,0.292-0.407,0.523-0.697,0.697
				c-0.291,0.176-0.638,0.233-0.988,0.233c-0.288,0-0.64-0.058-0.93-0.233c-0.291-0.175-0.522-0.405-0.697-0.697
				c-0.175-0.29-0.291-0.639-0.291-0.988c0-0.29,0.116-0.638,0.291-0.93c0.175-0.349,0.406-0.58,0.697-0.755
				c0.29-0.115,0.642-0.232,0.93-0.232c0.35,0,0.639,0.117,0.988,0.232c0.29,0.174,0.523,0.405,0.697,0.755
				c0.175,0.291,0.233,0.639,0.233,0.93C178.388,2.731,178.331,3.079,178.155,3.37z"/>
			<path fill="#ECECEC" d="M177.109,2.847c-0.058-0.058-0.115-0.174-0.174-0.174c0-0.058-0.058-0.058-0.175-0.117
				c0.232,0,0.406-0.116,0.523-0.231c0.116-0.116,0.174-0.29,0.174-0.465c0-0.115-0.058-0.231-0.117-0.349
				c-0.057-0.117-0.114-0.234-0.231-0.234c-0.058-0.058-0.23-0.115-0.405-0.115c-0.059,0-0.291,0-0.814,0h-0.466v2.501h0.522V2.616
				h0.116c0.118,0,0.232,0.058,0.35,0.115c0.117,0.059,0.232,0.232,0.349,0.522l0.232,0.408h0.639l-0.291-0.467
				C177.226,2.964,177.167,2.906,177.109,2.847z M176.703,2.208c-0.116,0-0.291,0-0.583,0h-0.174v-0.64h0.174
				c0.292,0,0.467,0,0.583,0c0.058,0.06,0.116,0.06,0.175,0.117c0,0.059,0.058,0.116,0.058,0.174c0,0.116-0.058,0.175-0.058,0.232
				C176.819,2.15,176.76,2.15,176.703,2.208z"/>
		</g>
		<path fill="#ECECEC" d="M21.376,2.616h11.278c1.278,0,2.383,0.464,3.313,1.395c0.931,0.93,1.396,2.035,1.396,3.313
			c0,1.337-0.465,2.441-1.396,3.371c-0.93,0.932-2.034,1.338-3.313,1.338h-8.371v6.568h-2.907V2.616z M55.558,6.917L55.558,6.917
			L55.558,6.917L55.558,6.917L55.558,6.917L55.558,6.917L55.558,6.917L55.558,6.917L55.558,6.917L55.558,6.917L55.558,6.917
			L55.558,6.917L55.558,6.917L55.558,6.917L55.558,6.917L55.558,6.917L55.558,6.917L55.558,6.917L55.558,6.917L55.558,6.917
			L55.558,6.917L55.558,6.917L55.558,6.917L55.558,6.917z M129.907,3.662L129.907,3.662L129.907,3.662h0.058l0,0l0,0l0,0l0,0l0,0
			l0,0l0,0l0,0l0,0l0,0l0,0l0,0H129.907L129.907,3.662L129.907,3.662L129.907,3.662L129.907,3.662L129.907,3.662L129.907,3.662
			L129.907,3.662L129.907,3.662L129.907,3.662L129.907,3.662L129.907,3.662L129.907,3.662z M129.965,3.662L129.965,3.662
			L129.965,3.662L129.965,3.662c-0.058,0-0.058,0-0.058,0S129.907,3.662,129.965,3.662L129.965,3.662z M70.148,2.616L70.148,2.616
			c-1.104,0-2.209,0-3.372,0c-1.105,0-2.209,0-3.372,0c-1.279,0-2.441,0.522-3.371,1.452c-0.989,0.989-1.454,2.151-1.454,3.547
			c0,1.977,0,3.022,0,5c0,1.047-0.174,2.44,0.931,4.01c0.465,0.64,0.813,0.987,1.686,1.454c0.872,0.466,2.499,0.522,3.139,0.522
			c1.163,0,1.336,0,2.441,0c1.162,0,2.267,0,3.372,0c1.337,0,2.5-0.522,3.313-1.453c0.524-0.523,1.104-1.569,1.104-2.615
			c0-0.988-0.349-2.56-1.046-3.256c-0.872-1.047-2.034-1.222-3.372-1.222c-1.104,0-2.209,0-3.372,0c-0.697,0-1.396,0-2.093,0v3.022
			c0.697,0,1.396,0,2.093,0c1.162,0,2.267,0,3.372,0c0.522,0,0.987,0.115,1.337,0.466c0.231,0.291,0.174,1.338-0.059,1.512
			c-0.35,0.406-0.756,0.465-1.279,0.465c-1.104,0-2.209,0-3.372,0c-1.105,0-2.209,0-3.372,0c-0.465,0-0.931-0.175-1.279-0.582
			c-0.348-0.348-0.582-0.813-0.582-1.336v-0.813l0,0V7.615l0,0c0.061-0.522,0.234-0.988,0.582-1.338
			c0.35-0.405,0.814-0.581,1.279-0.581c1.162,0,2.267,0,3.372,0c1.162,0,2.267,0,3.372,0V2.616H70.148z M56.022,2.616L56.022,2.616
			h-2.906v1.452c0,1.396-0.523,2.559-1.512,3.604C50.616,8.661,49.395,9.127,48,9.127c-1.395,0-2.558-0.465-3.545-1.454
			c-1.046-1.047-1.512-2.209-1.512-3.604V2.616h-2.906v1.452c0,1.919,0.639,3.662,1.86,5.116c1.278,1.511,2.791,2.383,4.649,2.732
			v6.685h2.906v-6.685c1.86-0.351,3.43-1.223,4.651-2.732c1.277-1.454,1.917-3.197,1.917-5.116L56.022,2.616L56.022,2.616z
			 M173.62,7.324L173.62,7.324v11.277h-2.904V7.324c0-0.466-0.175-0.872-0.582-1.278c-0.348-0.349-0.757-0.523-1.221-0.523h-5.115
			h-1.454c-0.521,0-0.929,0.175-1.277,0.523c-0.351,0.406-0.523,0.813-0.523,1.278v11.277h-2.905V7.324V2.616h2.905v0.349
			c0.582-0.232,1.222-0.349,1.803-0.349h5.466l0,0h1.104c1.279,0,2.383,0.464,3.313,1.395C173.157,4.94,173.62,6.045,173.62,7.324
			L173.62,7.324z M146.997,2.616L146.997,2.616c2.209,0,4.07,0.813,5.642,2.383c1.566,1.511,2.324,3.43,2.324,5.581
			c0,2.209-0.758,4.128-2.324,5.639c-1.57,1.569-3.433,2.384-5.642,2.384s-4.067-0.813-5.639-2.384
			c-1.568-1.511-2.325-3.43-2.325-5.639c0-2.151,0.757-4.069,2.325-5.581C142.929,3.429,144.788,2.616,146.997,2.616L146.997,2.616z
			 M143.393,7.034L143.393,7.034c-0.987,0.987-1.511,2.15-1.511,3.545c0,1.394,0.522,2.614,1.511,3.604
			c0.988,0.988,2.21,1.512,3.604,1.512c1.396,0,2.616-0.522,3.605-1.512c0.986-0.988,1.45-2.209,1.45-3.604
			c0-1.396-0.464-2.558-1.45-3.545c-0.989-1.047-2.209-1.513-3.605-1.513C145.603,5.522,144.382,5.987,143.393,7.034L143.393,7.034z
			 M133.163,2.616L133.163,2.616h3.197v2.905h-3.197V2.616z M136.36,8.428L136.36,8.428v10.173h-3.197V8.428H136.36z M117.466,2.616
			L117.466,2.616h-2.905c0,1.859,0,3.777,0,5.639c0,1.918,0,3.778,0,5.638c0,1.278,0.464,2.384,1.396,3.313
			c0.93,0.929,2.034,1.396,3.313,1.396c1.104,0,2.209,0,3.256,0c1.104,0,2.209,0,3.313,0c1.279,0,2.385-0.467,3.315-1.396
			c0.929-0.931,1.396-2.035,1.396-3.313h-2.907c0,0.465-0.175,0.932-0.523,1.278c-0.348,0.35-0.813,0.522-1.279,0.522
			c-1.104,0-2.209,0-3.313,0c-1.047,0-2.15,0-3.256,0c-0.464,0-0.931-0.174-1.278-0.522c-0.347-0.406-0.524-0.813-0.524-1.278
			C117.466,13.718,117.466,2.616,117.466,2.616L117.466,2.616z M111.945,12.963L111.945,12.963c0,1.86,0,3.778,0,5.639h-2.906v-0.35
			c-0.583,0.233-1.222,0.35-1.802,0.35c-1.106,0-2.209,0-3.314,0c-1.104,0-2.15,0-3.255,0c-1.278,0-2.441-0.467-3.313-1.396
			c-0.93-0.931-1.396-2.035-1.396-3.313c0-1.337,0.466-2.439,1.396-3.371c0.872-0.873,2.035-1.337,3.313-1.337
			c1.104,0,2.151,0,3.255,0c1.105,0,2.208,0,3.314,0c0.465,0,0.871-0.176,1.219-0.582c0.409-0.348,0.583-0.755,0.583-1.278
			c0-0.466-0.174-0.872-0.583-1.278c-0.348-0.349-0.754-0.523-1.219-0.523c-1.106,0-2.209,0-3.314,0c-1.104,0-2.15,0-3.255,0
			c-0.523,0-0.93,0.175-1.278,0.523c-0.35,0.406-0.523,0.813-0.523,1.278h-2.907c0-1.278,0.466-2.384,1.396-3.313
			c0.872-0.931,2.035-1.395,3.313-1.395c1.104,0,2.151,0,3.255,0c1.105,0,2.208,0,3.314,0c1.278,0,2.383,0.464,3.312,1.395
			c0.933,0.93,1.397,2.035,1.397,3.313C111.945,9.242,111.945,11.103,111.945,12.963L111.945,12.963z M107.237,12.032
			L107.237,12.032c-1.106,0-2.209,0-3.314,0c-1.104,0-2.15,0-3.255,0c-0.523,0-0.93,0.174-1.278,0.582
			c-0.35,0.349-0.523,0.755-0.523,1.277c0,0.465,0.174,0.932,0.523,1.278c0.349,0.35,0.755,0.522,1.278,0.522
			c1.104,0,2.151,0,3.255,0c1.105,0,2.208,0,3.314,0c0.465,0,0.871-0.174,1.219-0.522c0.409-0.348,0.583-0.813,0.583-1.278v-2.208
			C108.456,11.917,107.817,12.032,107.237,12.032L107.237,12.032z M82.007,2.616L82.007,2.616c1.222,0,2.325,0.464,3.256,1.337
			c0.93-0.873,1.977-1.337,3.255-1.337c1.277,0,2.385,0.464,3.313,1.395c0.93,0.93,1.396,2.035,1.396,3.313v11.277h-2.907V7.324
			c0-0.466-0.174-0.872-0.523-1.278c-0.349-0.349-0.755-0.523-1.278-0.523c-0.464,0-0.931,0.175-1.279,0.523
			c-0.349,0.406-0.523,0.813-0.523,1.278v5.464h-2.905V7.324c0-0.466-0.176-0.872-0.525-1.278c-0.348-0.349-0.813-0.523-1.278-0.523
			c-0.521,0-0.93,0.175-1.278,0.523c-0.349,0.406-0.522,0.813-0.522,1.278v11.277h-2.908V7.324c0-1.278,0.466-2.384,1.337-3.313
			C79.566,3.08,80.67,2.616,82.007,2.616L82.007,2.616z M24.283,5.522L24.283,5.522v3.663h8.371c0.465,0,0.872-0.232,1.278-0.582
			c0.349-0.348,0.522-0.755,0.522-1.278c0-0.466-0.175-0.872-0.522-1.278c-0.406-0.349-0.813-0.523-1.278-0.523L24.283,5.522
			L24.283,5.522z"/>
	</g>
</g>
</svg>
